# xmcd
#
# Track frame offsets:
# 183
# 10483
# 21708
# 31258
# 40483
# 52383
# 64908
# 74058
# 86808
# 95883
# 103408
# 114508
# 122983
# 132558
# 142908
# 155683
# 164758
# 174508
#
# Disc length: 2468 seconds
#
# Revision: 0
# Processed by: cddbd v1.4PL0 Copyright (c) Steve Scherf et al.
# Submitted via: Audion 3.0.2 (http://www.panic.com/audion/)
#
DISCID=2609a212
DTITLE=Beach Boys - Greatest Hits
DYEAR=1900
DGENRE=
TTITLE0=I Get Around
TTITLE1=Surfin U.S.A.
TTITLE2=Surfin Safari
TTITLE3=Fun Fun Fun
TTITLE4=California
TTITLE5=Help Me Rhonda
TTITLE6=When I Grow up
TTITLE7=Don't Worry Baby
TTITLE8=Dance Dance Dance
TTITLE9=Little Deuce
TTITLE10=Surfer Girl
TTITLE11=Little Honda
TTITLE12=Be True To Your School
TTITLE13=Wendy
TTITLE14=Car Crazy
TTITLE15=409
TTITLE16=All Summer Long
TTITLE17=Our Car Club
EXTD=
EXTT0=
EXTT1=
EXTT2=
EXTT3=
EXTT4=
EXTT5=
EXTT6=
EXTT7=
EXTT8=
EXTT9=
EXTT10=
EXTT11=
EXTT12=
EXTT13=
EXTT14=
EXTT15=
EXTT16=
EXTT17=
PLAYORDER=
